<?xml version="1.0" encoding="utf-8"?>
<!-- Generator: Adobe Illustrator 27.0.0, SVG Export Plug-In . SVG Version: 6.00 Build 0)  -->
<svg version="1.1"
	 id="svg3036" xmlns:cc="http://creativecommons.org/ns#" xmlns:dc="http://purl.org/dc/elements/1.1/" xmlns:inkscape="http://www.inkscape.org/namespaces/inkscape" xmlns:rdf="http://www.w3.org/1999/02/22-rdf-syntax-ns#" xmlns:sodipodi="http://sodipodi.sourceforge.net/DTD/sodipodi-0.dtd" xmlns:svg="http://www.w3.org/2000/svg"
	 xmlns="http://www.w3.org/2000/svg" xmlns:xlink="http://www.w3.org/1999/xlink" x="0px" y="0px" viewBox="0 0 100 100"
	 style="enable-background:new 0 0 100 100;" xml:space="preserve">
<style type="text/css">
	.st0{fill:#FFFFFF;}
	.st1{fill:#E9B724;}
</style>
<sodipodi:namedview  bordercolor="#666666" borderlayer="true" borderopacity="1" gridtolerance="10" guidetolerance="10" id="namedview3038" inkscape:current-layer="svg3036" inkscape:cx="60" inkscape:cy="55.933251" inkscape:pageopacity="0" inkscape:pageshadow="2" inkscape:showpageshadow="false" inkscape:window-height="939" inkscape:window-maximized="1" inkscape:window-width="1232" inkscape:window-x="48" inkscape:window-y="21" inkscape:zoom="6.7416667" objecttolerance="10" pagecolor="#ffffff" showgrid="false">
	</sodipodi:namedview>
<rect id="rect3824" class="st0" width="100" height="100"/>
<path id="path3054" inkscape:connector-curvature="0" sodipodi:nodetypes="ssssssssssssssssssssssssssssssssssssssscsssssccssscsscsssssscsssssscsscs" class="st1" d="
	M47.9,92.4c-0.3,0-1.2-0.4-2.1-0.9c-2-1-3.4-2.4-4.5-4.6c-0.6-1.3-0.7-1.7-0.8-3.4c-0.1-3,0.6-5,2.5-7c1.9-2,4.1-3,6.9-3
	c2.9,0,5.1,1,7.1,3.1c1.8,2,2.5,4,2.4,6.9c-0.1,1.6-0.2,2-0.8,3.4c-1.2,2.6-3.5,4.5-6.3,5.3C51.5,92.5,49,92.6,47.9,92.4z
	 M36.8,73.3c-3.5-0.7-6.5-3.5-7.4-7c-0.8-3.2,0.2-6.8,2.5-9.2c4.7-4.6,12.5-3.3,15.3,2.7c2.1,4.3,0.5,9.6-3.4,12.2
	C41.8,73.2,39,73.7,36.8,73.3z M59.6,73.3c-0.5-0.1-1.6-0.5-2.5-0.9c-4.4-2.1-6.5-7.4-4.7-12c1.7-4.3,6.4-6.9,10.9-5.9
	c1.7,0.4,3.5,1.3,4.8,2.6c5.4,5.3,2.6,14.5-4.7,16.1C61.9,73.5,61.1,73.6,59.6,73.3z M25.5,53.5c-4.3-1.4-7.2-5.9-6.6-10.3
	c0.3-2.3,1.1-3.8,2.6-5.4c3.2-3.4,8.3-3.9,12.3-1.3c3.9,2.6,5.3,8,3.1,12.3c-1.1,2.1-3.4,4-5.8,4.7C29.6,54,26.9,54,25.5,53.5
	L25.5,53.5z M47.1,53.5c-2.9-0.9-5.4-3.5-6.3-6.5c-0.3-0.9-0.3-1.7-0.2-3.2c0.1-1.8,0.2-2.1,0.9-3.6c3-6,11-7.2,15.5-2.3
	c1.7,1.9,2.5,3.9,2.5,6.5c0,3.3-1.6,6.2-4.4,8.1C53.1,53.9,49.6,54.3,47.1,53.5L47.1,53.5z M68.7,53.5c-3.9-1.3-6.6-5-6.6-9.1
	c0-5.2,4.3-9.5,9.5-9.5c2.6,0,4.6,0.8,6.5,2.5c5,4.5,3.8,12.7-2.4,15.6c-1.4,0.7-1.6,0.7-3.7,0.8C70.3,53.9,69.6,53.8,68.7,53.5
	L68.7,53.5z M63.3,30.8c-5.9-4-14-5.2-21.3-3.1c-1.7,0.5-4.6,1.8-6.2,2.9l-1.2,0.8l-1.7-0.6c-1.6-0.5-1.9-0.6-4.8-0.6h-3l1.1-1.2
	c6.6-6.7,16.5-10.4,25.7-9.6c2.5,0.2,2.6,0.2,3.5-0.2c0.5-0.3,1.7-0.7,2.6-1c3.1-1,5-2.2,6.8-4.2c1.6-1.7,3.1-3.6,4.1-5
	c0.5-0.7,1-1.4,1-1.4c0.1-0.2,7.1,3.1,7.2,3.3c0.1,0.2-1.4,2.7-2.7,4.3c-3,3.8-5.6,6.4-7.5,7.7c-0.6,0.4-1.2,0.8-1.2,0.9
	c0,0.1,0.6,0.5,1.3,0.9c1.6,1,4,3,5.3,4.4l1.1,1.1h-2c-2.2,0-4.4,0.5-5.9,1.2c-0.4,0.2-0.9,0.4-1,0.4C64.7,31.7,64,31.3,63.3,30.8
	L63.3,30.8z"/>
</svg>
